<?xml version="1.0" encoding="UTF-8" standalone="no"?>
<!-- Created with Inkscape (http://www.inkscape.org/) -->

<svg
   xmlns:dc="http://purl.org/dc/elements/1.1/"
   xmlns:cc="http://creativecommons.org/ns#"
   xmlns:rdf="http://www.w3.org/1999/02/22-rdf-syntax-ns#"
   xmlns:svg="http://www.w3.org/2000/svg"
   xmlns="http://www.w3.org/2000/svg"
   xmlns:sodipodi="http://sodipodi.sourceforge.net/DTD/sodipodi-0.dtd"
   xmlns:inkscape="http://www.inkscape.org/namespaces/inkscape"
   width="67"
   height="67"
   id="svg3289"
   version="1.1"
   inkscape:version="0.48.2 r9819"
   sodipodi:docname="red-pawn.svg">
  <defs
     id="defs3291" />
  <sodipodi:namedview
     id="base"
     pagecolor="#ffffff"
     bordercolor="#666666"
     borderopacity="1.0"
     inkscape:pageopacity="0.0"
     inkscape:pageshadow="2"
     inkscape:zoom="5.5"
     inkscape:cx="32"
     inkscape:cy="32"
     inkscape:current-layer="layer1"
     showgrid="true"
     inkscape:document-units="px"
     inkscape:grid-bbox="true"
     inkscape:window-width="1920"
     inkscape:window-height="1058"
     inkscape:window-x="1912"
     inkscape:window-y="-8"
     inkscape:window-maximized="1" />
  <metadata
     id="metadata3294">
    <rdf:RDF>
      <cc:Work
         rdf:about="">
        <dc:format>image/svg+xml</dc:format>
        <dc:type
           rdf:resource="http://purl.org/dc/dcmitype/StillImage" />
        <dc:title></dc:title>
      </cc:Work>
    </rdf:RDF>
  </metadata>
  <g
     id="layer1"
     inkscape:label="Layer 1"
     inkscape:groupmode="layer"
     transform="translate(0,3)">
    <g
       id="g2873"
       transform="translate(-97.75,-13.25)">
      <path
         transform="translate(88.75,1.25)"
         d="M 75,42.5 C 75,60.449254 60.449254,75 42.5,75 24.550746,75 10,60.449254 10,42.5 10,24.550746 24.550746,10 42.5,10 60.449254,10 75,24.550746 75,42.5 z"
         sodipodi:ry="32.5"
         sodipodi:rx="32.5"
         sodipodi:cy="42.5"
         sodipodi:cx="42.5"
         id="path12863"
         style="fill:#fedaa4;fill-opacity:1;stroke:#000000;stroke-width:2;stroke-linecap:round;stroke-linejoin:bevel;stroke-miterlimit:4;stroke-opacity:1;stroke-dasharray:none;marker:none;visibility:visible;display:inline;overflow:visible"
         sodipodi:type="arc" />
      <path
         sodipodi:type="arc"
         style="fill:none;stroke:#000000;stroke-width:2.23299003;stroke-linecap:round;stroke-linejoin:bevel;stroke-miterlimit:4;stroke-opacity:1;stroke-dasharray:none;marker:none;visibility:visible;display:inline;overflow:visible"
         id="path12865"
         sodipodi:cx="42.5"
         sodipodi:cy="42.5"
         sodipodi:rx="32.5"
         sodipodi:ry="32.5"
         d="M 75,42.5 C 75,60.449254 60.449254,75 42.5,75 24.550746,75 10,60.449254 10,42.5 10,24.550746 24.550746,10 42.5,10 60.449254,10 75,24.550746 75,42.5 z"
         transform="matrix(0.89566,0,0,0.89566,93.1844,5.68443)" />
      <path
         inkscape:connector-curvature="0"
         id="text12859"
         d="m 123.59375,31.109375 c -0.31251,1.666691 -1.1198,3.880231 -2.42187,6.640625 -1.3021,2.760433 -3.04689,5.286473 -5.23438,7.578125 l 0.46875,0.3125 c 2.49999,-1.666653 4.94791,-4.531234 7.34375,-8.59375 1.66665,1.770852 2.73436,3.359392 3.20312,4.765625 0.46874,1.406264 1.01561,1.562514 1.64063,0.46875 0.62498,-1.093734 0.62498,-2.005191 0,-2.734375 -0.62502,-0.729148 -2.13543,-1.770814 -4.53125,-3.125 0.52082,-0.937478 0.93749,-1.640603 1.25,-2.109375 0.31249,-0.468727 0.83332,-0.911435 1.5625,-1.328125 l -3.28125,-1.875 z m 15.9375,2.03125 -3.125,-2.03125 c -0.62502,2.187524 -1.58857,4.427105 -2.89063,6.71875 -1.3021,2.291684 -3.20314,4.739598 -5.70312,7.34375 l 0.46875,0.3125 c 0.62498,-0.416655 1.24998,-0.885404 1.875,-1.40625 l 0,3.75 -16.875,0 1.25,1.25 c 0.9375,-0.312492 1.97916,-0.468741 3.125,-0.46875 l 12.5,0 0,8.4375 c -2e-5,0.625 -0.0521,2.031248 -0.15625,4.21875 l 2.5,-0.9375 c -0.10419,-1.979168 -0.15627,-3.28125 -0.15625,-3.90625 l 0,-7.8125 16.875,0 -2.8125,-3.125 -2.34375,2.34375 -11.71875,0 0,-1.5625 1.40625,-1.09375 -3.28125,-1.40625 c 2.18748,-2.083318 4.06248,-4.166649 5.625,-6.25 1.35414,1.250018 2.44789,2.447934 3.28125,3.59375 0.8333,1.145848 1.4583,2.187514 1.875,3.125 0.41664,0.937512 0.96351,0.833345 1.64062,-0.3125 0.67706,-1.145819 0.44268,-2.239568 -0.70312,-3.28125 -1.14586,-1.041649 -3.07294,-2.291648 -5.78125,-3.75 0.41664,-0.624979 0.85935,-1.302062 1.32813,-2.03125 0.46872,-0.729144 1.06768,-1.30206 1.79687,-1.71875 l 0,0 z m -10.625,-8.59375 -0.46875,0.46875 c 1.24998,1.666697 1.92706,3.281279 2.03125,4.84375 l -15.46875,0 1.25,1.25 c 0.93749,-0.312474 1.97916,-0.468723 3.125,-0.46875 l 26.875,0 -2.96875,-3.125 -2.34375,2.34375 -9.375,0 c 0.93748,-0.833305 1.24998,-1.666638 0.9375,-2.5 -0.31252,-0.833303 -1.51044,-1.770802 -3.59375,-2.8125 l 0,0 z"
         style="font-size:40px;font-style:italic;font-variant:normal;font-weight:normal;font-stretch:normal;text-align:end;line-height:100%;text-anchor:end;fill:#000000;fill-opacity:1;stroke:#000000;stroke-width:1px;stroke-linecap:butt;stroke-linejoin:miter;stroke-opacity:1;font-family:DejaVu Serif" />
    </g>
  </g>
</svg>
