<?xml version="1.0" encoding="UTF-8" standalone="no"?>
<!-- Created with Inkscape (http://www.inkscape.org/) -->

<svg
   xmlns:dc="http://purl.org/dc/elements/1.1/"
   xmlns:cc="http://creativecommons.org/ns#"
   xmlns:rdf="http://www.w3.org/1999/02/22-rdf-syntax-ns#"
   xmlns:svg="http://www.w3.org/2000/svg"
   xmlns="http://www.w3.org/2000/svg"
   xmlns:sodipodi="http://sodipodi.sourceforge.net/DTD/sodipodi-0.dtd"
   xmlns:inkscape="http://www.inkscape.org/namespaces/inkscape"
   width="67"
   height="67"
   id="svg3289"
   version="1.1"
   inkscape:version="0.48.2 r9819"
   sodipodi:docname="red-cart.svg">
  <defs
     id="defs3291" />
  <sodipodi:namedview
     id="base"
     pagecolor="#ffffff"
     bordercolor="#666666"
     borderopacity="1.0"
     inkscape:pageopacity="0.0"
     inkscape:pageshadow="2"
     inkscape:zoom="5.5"
     inkscape:cx="32"
     inkscape:cy="32"
     inkscape:current-layer="layer1"
     showgrid="true"
     inkscape:document-units="px"
     inkscape:grid-bbox="true"
     inkscape:window-width="1920"
     inkscape:window-height="1058"
     inkscape:window-x="1912"
     inkscape:window-y="-8"
     inkscape:window-maximized="1" />
  <metadata
     id="metadata3294">
    <rdf:RDF>
      <cc:Work
         rdf:about="">
        <dc:format>image/svg+xml</dc:format>
        <dc:type
           rdf:resource="http://purl.org/dc/dcmitype/StillImage" />
        <dc:title></dc:title>
      </cc:Work>
    </rdf:RDF>
  </metadata>
  <g
     id="layer1"
     inkscape:label="Layer 1"
     inkscape:groupmode="layer"
     transform="translate(0,3)">
    <g
       id="g2972"
       transform="translate(-97.75,-13.25)">
      <g
         id="g2897">
        <path
           sodipodi:type="arc"
           style="fill:#fedaa4;fill-opacity:1;stroke:#000000;stroke-width:2;stroke-linecap:round;stroke-linejoin:bevel;stroke-miterlimit:4;stroke-opacity:1;stroke-dasharray:none;marker:none;visibility:visible;display:inline;overflow:visible"
           id="path12863"
           sodipodi:cx="42.5"
           sodipodi:cy="42.5"
           sodipodi:rx="32.5"
           sodipodi:ry="32.5"
           d="M 75,42.5 C 75,60.449254 60.449254,75 42.5,75 24.550746,75 10,60.449254 10,42.5 10,24.550746 24.550746,10 42.5,10 60.449254,10 75,24.550746 75,42.5 z"
           transform="translate(88.75,1.25)" />
        <path
           transform="matrix(0.89566,0,0,0.89566,93.1844,5.68443)"
           d="M 75,42.5 C 75,60.449254 60.449254,75 42.5,75 24.550746,75 10,60.449254 10,42.5 10,24.550746 24.550746,10 42.5,10 60.449254,10 75,24.550746 75,42.5 z"
           sodipodi:ry="32.5"
           sodipodi:rx="32.5"
           sodipodi:cy="42.5"
           sodipodi:cx="42.5"
           id="path12865"
           style="fill:none;stroke:#000000;stroke-width:2.23299003;stroke-linecap:round;stroke-linejoin:bevel;stroke-miterlimit:4;stroke-opacity:1;stroke-dasharray:none;marker:none;visibility:visible;display:inline;overflow:visible"
           sodipodi:type="arc" />
      </g>
      <path
         inkscape:connector-curvature="0"
         id="text12859"
         d="m 120.78125,36.71875 8.90625,0 0,5.15625 -8.90625,0 0,-5.15625 z m 10.9375,0 9.21875,0 0,5.15625 -9.21875,0 0,-5.15625 z m -10.9375,5.9375 8.90625,0 0,4.6875 -8.90625,0 0,-4.6875 z m 10.9375,0 9.21875,0 0,4.6875 -9.21875,0 0,-4.6875 z M 118.75,42.578125 c -1e-5,3.593762 -0.0521,6.328134 -0.15625,8.203125 l 2.1875,-1.09375 0,-1.5625 8.90625,0 0,5.15625 -17.03125,0 1.25,1.25 c 0.9375,-0.312496 1.97916,-0.468746 3.125,-0.46875 l 12.65625,0 c -2e-5,3.75 -0.0521,6.458331 -0.15625,8.125 l 2.34375,-0.78125 c -0.10419,-2.604168 -0.15627,-5.052082 -0.15625,-7.34375 l 18.125,0 -3.28125,-3.125 -2.5,2.34375 -12.34375,0 0,-5.15625 9.21875,0 0,2.03125 2.1875,-0.9375 C 143.0208,47.447927 142.96872,43.541681 142.96875,37.5 l 1.5625,-0.9375 -2.34375,-2.34375 -1.71875,1.71875 -8.75,0 0,-4.0625 15.9375,0 -2.8125,-2.8125 -2.1875,2.03125 -10.9375,0 0,-3.125 1.875,-1.40625 -4.0625,-1.25 c 0.10415,1.979197 0.15623,3.906279 0.15625,5.78125 l -15,0 1.25,1.25 c 0.93749,-0.312474 1.97916,-0.468724 3.125,-0.46875 l 10.625,0 0,4.0625 -8.59375,0 -2.5,-1.40625 c 0.10416,1.770855 0.15624,4.453144 0.15625,8.046875 l 0,0 z"
         style="font-size:40px;font-style:italic;font-variant:normal;font-weight:normal;font-stretch:normal;text-align:end;line-height:100%;text-anchor:end;fill:#000000;fill-opacity:1;stroke:#000000;stroke-width:1px;stroke-linecap:butt;stroke-linejoin:miter;stroke-opacity:1;font-family:DejaVu Serif" />
    </g>
  </g>
</svg>
