<?xml version="1.0" encoding="UTF-8" standalone="no"?>
<!-- Created with Inkscape (http://www.inkscape.org/) -->

<svg
   xmlns:dc="http://purl.org/dc/elements/1.1/"
   xmlns:cc="http://creativecommons.org/ns#"
   xmlns:rdf="http://www.w3.org/1999/02/22-rdf-syntax-ns#"
   xmlns:svg="http://www.w3.org/2000/svg"
   xmlns="http://www.w3.org/2000/svg"
   xmlns:sodipodi="http://sodipodi.sourceforge.net/DTD/sodipodi-0.dtd"
   xmlns:inkscape="http://www.inkscape.org/namespaces/inkscape"
   width="67"
   height="67"
   id="svg3289"
   version="1.1"
   inkscape:version="0.48.2 r9819"
   sodipodi:docname="red-horse.svg">
  <defs
     id="defs3291" />
  <sodipodi:namedview
     id="base"
     pagecolor="#ffffff"
     bordercolor="#666666"
     borderopacity="1.0"
     inkscape:pageopacity="0.0"
     inkscape:pageshadow="2"
     inkscape:zoom="5.5"
     inkscape:cx="32"
     inkscape:cy="32"
     inkscape:current-layer="layer1"
     showgrid="true"
     inkscape:document-units="px"
     inkscape:grid-bbox="true"
     inkscape:window-width="1920"
     inkscape:window-height="1058"
     inkscape:window-x="1912"
     inkscape:window-y="-8"
     inkscape:window-maximized="1" />
  <metadata
     id="metadata3294">
    <rdf:RDF>
      <cc:Work
         rdf:about="">
        <dc:format>image/svg+xml</dc:format>
        <dc:type
           rdf:resource="http://purl.org/dc/dcmitype/StillImage" />
        <dc:title></dc:title>
      </cc:Work>
    </rdf:RDF>
  </metadata>
  <g
     id="layer1"
     inkscape:label="Layer 1"
     inkscape:groupmode="layer"
     transform="translate(0,3)">
    <g
       id="g2892"
       transform="translate(-97.75,-13.25)">
      <path
         transform="translate(88.75,1.25)"
         d="M 75,42.5 C 75,60.449254 60.449254,75 42.5,75 24.550746,75 10,60.449254 10,42.5 10,24.550746 24.550746,10 42.5,10 60.449254,10 75,24.550746 75,42.5 z"
         sodipodi:ry="32.5"
         sodipodi:rx="32.5"
         sodipodi:cy="42.5"
         sodipodi:cx="42.5"
         id="path12863"
         style="fill:#fedaa4;fill-opacity:1;stroke:#000000;stroke-width:2;stroke-linecap:round;stroke-linejoin:bevel;stroke-miterlimit:4;stroke-opacity:1;stroke-dasharray:none;marker:none;visibility:visible;display:inline;overflow:visible"
         sodipodi:type="arc" />
      <path
         sodipodi:type="arc"
         style="fill:none;stroke:#000000;stroke-width:2.23299003;stroke-linecap:round;stroke-linejoin:bevel;stroke-miterlimit:4;stroke-opacity:1;stroke-dasharray:none;marker:none;visibility:visible;display:inline;overflow:visible"
         id="path12865"
         sodipodi:cx="42.5"
         sodipodi:cy="42.5"
         sodipodi:rx="32.5"
         sodipodi:ry="32.5"
         d="M 75,42.5 C 75,60.449254 60.449254,75 42.5,75 24.550746,75 10,60.449254 10,42.5 10,24.550746 24.550746,10 42.5,10 60.449254,10 75,24.550746 75,42.5 z"
         transform="matrix(0.89566,0,0,0.89566,93.1844,5.68443)" />
      <path
         inkscape:connector-curvature="0"
         id="text12859"
         d="m 118.35938,49.03125 2.34374,-0.78125 0,-1.71875 24.53126,-0.3125 c -4e-5,3.020842 -0.13025,5.468756 -0.39063,7.34375 -0.26045,1.875002 -0.65107,3.203126 -1.17187,3.984375 -0.52087,0.781249 -1.45837,1.093749 -2.8125,0.9375 -1.3542,-0.156251 -2.9167,-0.390625 -4.6875,-0.703125 l -0.15626,0.78125 c 3.54164,0.729165 5.41664,1.822914 5.625,3.28125 1.87497,-0.520837 3.17706,-1.354169 3.90626,-2.5 0.72913,-1.145834 1.22392,-2.630207 1.48437,-4.453125 0.26038,-1.822912 0.44267,-4.453118 0.54687,-7.890625 l 1.71876,-1.09375 -2.96876,-2.5 -1.40624,2.03125 -11.40626,0.15625 0,-5.15625 12.03126,0 -2.65626,-2.65625 -1.875,1.875 -7.5,0 0,-5.15625 12.03126,0 -2.5,-2.5 -1.71876,1.71875 -7.8125,0 0,-5.3125 13.75,0 -2.8125,-2.8125 -2.03124,2.03125 -21.25,0 -2.8125,-1.40625 c 0.10415,3.229195 0.15624,6.7969 0.15624,10.703125 0,3.906267 -0.0521,7.942721 -0.15624,12.109375 l 0,0 z m -0.46876,0.9375 c -0.72917,2.708338 -1.69271,4.531253 -2.89062,5.46875 -1.19792,0.937501 -1.58854,1.744792 -1.17188,2.421875 0.41667,0.677083 1.11979,0.833332 2.10938,0.46875 0.98958,-0.364584 1.71874,-1.171874 2.1875,-2.421875 0.46874,-1.249997 0.65103,-3.229162 0.54688,-5.9375 l -0.78126,0 z m 4.21876,0.15625 c 1.14582,2.395839 1.74477,4.244795 1.79687,5.546875 0.0521,1.302084 0.4427,1.822917 1.17187,1.5625 0.72916,-0.260416 1.17187,-0.781249 1.32813,-1.5625 0.15624,-0.781247 -0.0261,-1.640621 -0.54687,-2.578125 -0.52085,-0.937494 -1.6146,-2.083327 -3.28126,-3.4375 l -0.46874,0.46875 z m 14.375,-1.25 c 1.4583,1.666674 2.34372,3.151047 2.65624,4.453125 0.31248,1.302086 0.75519,1.875003 1.32813,1.71875 0.57289,-0.156247 0.98955,-0.572913 1.25,-1.25 0.26039,-0.677079 0.10414,-1.458328 -0.46875,-2.34375 -0.57295,-0.885409 -2.00524,-1.901033 -4.29688,-3.046875 l -0.46874,0.46875 z m -15.78126,-20.46875 10.625,0 0,5.3125 -10.625,0 0,-5.3125 z m 0,6.09375 10.625,0 0,5.15625 -10.625,0 0,-5.15625 z m 0,5.9375 10.625,0 0,5.15625 -10.625,0.15625 0,-5.3125 z m 8.4375,8.90625 c 1.14582,1.45834 1.87499,2.968755 2.1875,4.53125 0.31248,1.562502 0.80728,2.239585 1.48438,2.03125 0.67706,-0.208331 1.09373,-0.651039 1.25,-1.328125 0.15623,-0.677079 -0.0261,-1.458329 -0.54688,-2.34375 -0.52085,-0.88541 -1.82293,-2.005201 -3.90624,-3.359375 l -0.46876,0.46875 z"
         style="font-size:40px;font-style:italic;font-variant:normal;font-weight:normal;font-stretch:normal;text-align:end;line-height:100%;text-anchor:end;fill:#000000;fill-opacity:1;stroke:#000000;stroke-width:1px;stroke-linecap:butt;stroke-linejoin:miter;stroke-opacity:1;font-family:DejaVu Serif" />
    </g>
  </g>
</svg>
