<?xml version="1.0" encoding="UTF-8" standalone="no"?>
<!-- Created with Inkscape (http://www.inkscape.org/) -->

<svg
   xmlns:dc="http://purl.org/dc/elements/1.1/"
   xmlns:cc="http://creativecommons.org/ns#"
   xmlns:rdf="http://www.w3.org/1999/02/22-rdf-syntax-ns#"
   xmlns:svg="http://www.w3.org/2000/svg"
   xmlns="http://www.w3.org/2000/svg"
   xmlns:sodipodi="http://sodipodi.sourceforge.net/DTD/sodipodi-0.dtd"
   xmlns:inkscape="http://www.inkscape.org/namespaces/inkscape"
   width="67"
   height="67"
   id="svg3289"
   version="1.1"
   inkscape:version="0.48.2 r9819"
   sodipodi:docname="red-cannon.svg">
  <defs
     id="defs3291" />
  <sodipodi:namedview
     id="base"
     pagecolor="#ffffff"
     bordercolor="#666666"
     borderopacity="1.0"
     inkscape:pageopacity="0.0"
     inkscape:pageshadow="2"
     inkscape:zoom="5.5"
     inkscape:cx="32"
     inkscape:cy="32"
     inkscape:current-layer="layer1"
     showgrid="true"
     inkscape:document-units="px"
     inkscape:grid-bbox="true"
     inkscape:window-width="1920"
     inkscape:window-height="1058"
     inkscape:window-x="1912"
     inkscape:window-y="-8"
     inkscape:window-maximized="1" />
  <metadata
     id="metadata3294">
    <rdf:RDF>
      <cc:Work
         rdf:about="">
        <dc:format>image/svg+xml</dc:format>
        <dc:type
           rdf:resource="http://purl.org/dc/dcmitype/StillImage" />
        <dc:title></dc:title>
      </cc:Work>
    </rdf:RDF>
  </metadata>
  <g
     id="layer1"
     inkscape:label="Layer 1"
     inkscape:groupmode="layer"
     transform="translate(0,3)">
    <g
       id="g2913"
       transform="translate(-97.75,-13.25)">
      <path
         transform="translate(88.75,1.25)"
         d="M 75,42.5 C 75,60.449254 60.449254,75 42.5,75 24.550746,75 10,60.449254 10,42.5 10,24.550746 24.550746,10 42.5,10 60.449254,10 75,24.550746 75,42.5 z"
         sodipodi:ry="32.5"
         sodipodi:rx="32.5"
         sodipodi:cy="42.5"
         sodipodi:cx="42.5"
         id="path12863"
         style="fill:#fedaa4;fill-opacity:1;stroke:#000000;stroke-width:2;stroke-linecap:round;stroke-linejoin:bevel;stroke-miterlimit:4;stroke-opacity:1;stroke-dasharray:none;marker:none;visibility:visible;display:inline;overflow:visible"
         sodipodi:type="arc" />
      <path
         sodipodi:type="arc"
         style="fill:none;stroke:#000000;stroke-width:2.23299003;stroke-linecap:round;stroke-linejoin:bevel;stroke-miterlimit:4;stroke-opacity:1;stroke-dasharray:none;marker:none;visibility:visible;display:inline;overflow:visible"
         id="path12865"
         sodipodi:cx="42.5"
         sodipodi:cy="42.5"
         sodipodi:rx="32.5"
         sodipodi:ry="32.5"
         d="M 75,42.5 C 75,60.449254 60.449254,75 42.5,75 24.550746,75 10,60.449254 10,42.5 10,24.550746 24.550746,10 42.5,10 60.449254,10 75,24.550746 75,42.5 z"
         transform="matrix(0.89566,0,0,0.89566,93.1844,5.68443)" />
      <path
         inkscape:connector-curvature="0"
         id="text12859"
         d="m 133.125,39.078125 4.6875,0 0,7.65625 -4.6875,0 0,-7.65625 z m 3.75,-12.1875 -3.125,-1.71875 c -0.41669,2.083363 -1.1719,4.635444 -2.26562,7.65625 -1.09377,3.020855 -2.36981,5.885435 -3.82813,8.59375 l 0.46875,0.46875 c 1.04165,-1.249983 2.08331,-2.708315 3.125,-4.375 l 0,20 c -2e-5,1.874998 1.1979,2.812497 3.59375,2.8125 l 9.375,0 c 1.24997,-3e-6 2.26559,-0.10417 3.04687,-0.3125 0.78122,-0.208336 1.48434,-0.885419 2.10938,-2.03125 -0.93754,-0.3125 -1.5365,-0.963541 -1.79688,-1.953125 -0.26045,-0.989581 -0.39066,-2.369788 -0.39062,-4.140625 l -0.625,0 c -4e-5,1.770837 -0.13024,3.333335 -0.39062,4.6875 -0.26046,1.354166 -0.9115,2.031249 -1.95313,2.03125 l -8.59375,0 c -1.77086,-10e-7 -2.65627,-0.677084 -2.65625,-2.03125 l 0,-9.0625 4.84375,0 0,1.40625 2.03125,-0.9375 c -0.1042,-1.562489 -0.15628,-4.322903 -0.15625,-8.28125 l 1.25,-0.9375 -1.875,-1.875 -1.40625,1.40625 -4.6875,0 -1.40625,-1.25 2.34375,-4.6875 10.625,0 0,16.25 c -3e-5,0.625008 -0.13024,1.041674 -0.39063,1.25 -0.26044,0.20834 -2.16148,0.104174 -5.70312,-0.3125 l 0,0.625 c 1.56247,0.416673 2.63018,0.83334 3.20312,1.25 0.57289,0.416672 1.0156,1.093755 1.32813,2.03125 1.56247,-0.520829 2.55205,-1.119787 2.96875,-1.796875 0.41663,-0.677077 0.62496,-1.536451 0.625,-2.578125 l 0,-15.78125 1.40625,-0.9375 -2.1875,-2.1875 -1.40625,1.40625 -10.15625,0 c 1.24998,-2.708305 2.13539,-4.270803 2.65625,-4.6875 l 0,0 z m -17.5,12.5 5.3125,0 0,13.4375 -5.3125,0 0,-13.4375 z m -2.03125,19.6875 2.03125,-0.9375 0,-4.53125 5.3125,0 0,2.8125 2.03125,-1.25 c -0.10418,-2.187496 -0.15627,-7.239574 -0.15625,-15.15625 l 1.40625,-0.78125 -2.03125,-2.03125 -1.40625,1.40625 -5.15625,0 c 0.83332,-2.708312 1.61457,-5.833309 2.34375,-9.375 l 7.34375,0 -2.5,-2.5 -1.71875,1.71875 -11.71875,0 1.25,1.25 c 0.9375,-0.312472 1.97916,-0.468722 3.125,-0.46875 l 2.03125,0 c -0.72917,4.16669 -1.61459,7.786479 -2.65625,10.859375 -1.04167,3.072931 -2.5,6.119803 -4.375,9.140625 l 0.3125,0.3125 c 1.35416,-1.249991 2.91666,-3.333322 4.6875,-6.25 -1e-5,8.750005 -0.0521,14.010417 -0.15625,15.78125 l 0,0 z"
         style="font-size:40px;font-style:italic;font-variant:normal;font-weight:normal;font-stretch:normal;text-align:end;line-height:100%;text-anchor:end;fill:#000000;fill-opacity:1;stroke:#000000;stroke-width:1px;stroke-linecap:butt;stroke-linejoin:miter;stroke-opacity:1;font-family:DejaVu Serif" />
    </g>
  </g>
</svg>
