<?xml version="1.0" encoding="UTF-8" standalone="no"?>
<!-- Created with Inkscape (http://www.inkscape.org/) -->

<svg
   xmlns:dc="http://purl.org/dc/elements/1.1/"
   xmlns:cc="http://creativecommons.org/ns#"
   xmlns:rdf="http://www.w3.org/1999/02/22-rdf-syntax-ns#"
   xmlns:svg="http://www.w3.org/2000/svg"
   xmlns="http://www.w3.org/2000/svg"
   xmlns:sodipodi="http://sodipodi.sourceforge.net/DTD/sodipodi-0.dtd"
   xmlns:inkscape="http://www.inkscape.org/namespaces/inkscape"
   width="67"
   height="67"
   id="svg3289"
   version="1.1"
   inkscape:version="0.48.2 r9819"
   sodipodi:docname="black-guard.svg">
  <defs
     id="defs3291" />
  <sodipodi:namedview
     id="base"
     pagecolor="#ffffff"
     bordercolor="#666666"
     borderopacity="1.0"
     inkscape:pageopacity="0.0"
     inkscape:pageshadow="2"
     inkscape:zoom="5.5"
     inkscape:cx="32"
     inkscape:cy="32"
     inkscape:current-layer="layer1"
     showgrid="true"
     inkscape:document-units="px"
     inkscape:grid-bbox="true"
     inkscape:window-width="1920"
     inkscape:window-height="1058"
     inkscape:window-x="1912"
     inkscape:window-y="-8"
     inkscape:window-maximized="1" />
  <metadata
     id="metadata3294">
    <rdf:RDF>
      <cc:Work
         rdf:about="">
        <dc:format>image/svg+xml</dc:format>
        <dc:type
           rdf:resource="http://purl.org/dc/dcmitype/StillImage" />
        <dc:title></dc:title>
      </cc:Work>
    </rdf:RDF>
  </metadata>
  <g
     id="layer1"
     inkscape:label="Layer 1"
     inkscape:groupmode="layer"
     transform="translate(0,3)">
    <g
       id="g2897"
       transform="translate(-21.75,-13.25)">
      <path
         transform="translate(12.75,1.25)"
         d="M 75,42.5 C 75,60.449254 60.449254,75 42.5,75 24.550746,75 10,60.449254 10,42.5 10,24.550746 24.550746,10 42.5,10 60.449254,10 75,24.550746 75,42.5 z"
         sodipodi:ry="32.5"
         sodipodi:rx="32.5"
         sodipodi:cy="42.5"
         sodipodi:cx="42.5"
         id="path12855"
         style="fill:#fedaa4;fill-opacity:1;stroke:#000000;stroke-width:2;stroke-linecap:round;stroke-linejoin:bevel;stroke-miterlimit:4;stroke-opacity:1;stroke-dasharray:none;marker:none;visibility:visible;display:inline;overflow:visible"
         sodipodi:type="arc" />
      <path
         sodipodi:type="arc"
         style="fill:none;stroke:#cc0000;stroke-width:2.23299003;stroke-linecap:round;stroke-linejoin:bevel;stroke-miterlimit:4;stroke-opacity:1;stroke-dasharray:none;marker:none;visibility:visible;display:inline;overflow:visible"
         id="path12857"
         sodipodi:cx="42.5"
         sodipodi:cy="42.5"
         sodipodi:rx="32.5"
         sodipodi:ry="32.5"
         d="M 75,42.5 C 75,60.449254 60.449254,75 42.5,75 24.550746,75 10,60.449254 10,42.5 10,24.550746 24.550746,10 42.5,10 60.449254,10 75,24.550746 75,42.5 z"
         transform="matrix(0.89566,0,0,0.89566,17.1844,5.68443)" />
      <path
         inkscape:connector-curvature="0"
         id="text12867"
         d="m 58.359375,47.15625 10,0 0,8.90625 -10,0 0,-8.90625 z m -2.1875,13.59375 2.1875,-0.9375 0,-2.96875 10,0 0,3.59375 2.34375,-1.09375 C 70.598923,56.84375 70.54684,47.31251 70.546875,30.75 l 1.40625,-1.09375 -2.1875,-2.1875 -1.71875,1.71875 -9.53125,0 -2.34375,-1.5625 c 0.104145,2.395861 0.156229,7.812522 0.15625,16.25 -2.1e-5,8.437505 -0.0521,14.062499 -0.15625,16.875 l 0,0 z m 2.1875,-30.78125 10,0 0,7.96875 -10,0 0,-7.96875 z m 0,8.75 10,0 0,7.65625 -10,0 0,-7.65625 z m -12.8125,-3.59375 -7.8125,0 1.25,1.25 c 0.937495,-0.312479 1.979161,-0.468729 3.125,-0.46875 l 3.125,0 C 44.192699,41.1146 41.380202,46.895844 36.796875,53.25 l 0.46875,0.46875 c 3.437494,-3.22916 6.197908,-7.031239 8.28125,-11.40625 -1e-5,5.937509 -0.05209,12.13542 -0.15625,18.59375 l 2.34375,-1.09375 c -0.104179,-2.604167 -0.156262,-9.114577 -0.15625,-19.53125 1.458319,0.937516 2.473943,2.26564 3.046875,3.984375 0.572901,1.718761 1.1979,1.979178 1.875,0.78125 0.677065,-1.197903 0.572899,-2.187486 -0.3125,-2.96875 C 51.302067,41.296891 49.76561,40.4896 47.578125,39.65625 l 0,-3.75 7.96875,0 -2.65625,-2.5 -1.875,1.71875 -3.4375,0 0,-7.65625 1.40625,-1.09375 -3.59375,-1.40625 c 0.104156,2.604196 0.15624,5.98961 0.15625,10.15625 l 0,0 z"
         style="font-size:40px;font-style:italic;font-variant:normal;font-weight:normal;font-stretch:normal;text-align:end;line-height:100%;text-anchor:end;fill:#cc0000;fill-opacity:1;stroke:#cc0000;stroke-width:1px;stroke-linecap:butt;stroke-linejoin:miter;stroke-opacity:1;font-family:DejaVu Serif" />
    </g>
  </g>
</svg>
