<?xml version="1.0" encoding="UTF-8" standalone="no"?>
<!-- Created with Inkscape (http://www.inkscape.org/) -->

<svg
   xmlns:dc="http://purl.org/dc/elements/1.1/"
   xmlns:cc="http://creativecommons.org/ns#"
   xmlns:rdf="http://www.w3.org/1999/02/22-rdf-syntax-ns#"
   xmlns:svg="http://www.w3.org/2000/svg"
   xmlns="http://www.w3.org/2000/svg"
   xmlns:sodipodi="http://sodipodi.sourceforge.net/DTD/sodipodi-0.dtd"
   xmlns:inkscape="http://www.inkscape.org/namespaces/inkscape"
   width="67"
   height="67"
   id="svg3289"
   version="1.1"
   inkscape:version="0.48.2 r9819"
   sodipodi:docname="black-horse.svg">
  <defs
     id="defs3291" />
  <sodipodi:namedview
     id="base"
     pagecolor="#ffffff"
     bordercolor="#666666"
     borderopacity="1.0"
     inkscape:pageopacity="0.0"
     inkscape:pageshadow="2"
     inkscape:zoom="5.5"
     inkscape:cx="32"
     inkscape:cy="32"
     inkscape:current-layer="layer1"
     showgrid="true"
     inkscape:document-units="px"
     inkscape:grid-bbox="true"
     inkscape:window-width="1920"
     inkscape:window-height="1058"
     inkscape:window-x="1912"
     inkscape:window-y="-8"
     inkscape:window-maximized="1" />
  <metadata
     id="metadata3294">
    <rdf:RDF>
      <cc:Work
         rdf:about="">
        <dc:format>image/svg+xml</dc:format>
        <dc:type
           rdf:resource="http://purl.org/dc/dcmitype/StillImage" />
        <dc:title></dc:title>
      </cc:Work>
    </rdf:RDF>
  </metadata>
  <g
     id="layer1"
     inkscape:label="Layer 1"
     inkscape:groupmode="layer"
     transform="translate(0,3)">
    <g
       id="g2868"
       transform="translate(-21.75,-13.25)">
      <path
         transform="translate(12.75,1.25)"
         d="M 75,42.5 C 75,60.449254 60.449254,75 42.5,75 24.550746,75 10,60.449254 10,42.5 10,24.550746 24.550746,10 42.5,10 60.449254,10 75,24.550746 75,42.5 z"
         sodipodi:ry="32.5"
         sodipodi:rx="32.5"
         sodipodi:cy="42.5"
         sodipodi:cx="42.5"
         id="path12855"
         style="fill:#fedaa4;fill-opacity:1;stroke:#000000;stroke-width:2;stroke-linecap:round;stroke-linejoin:bevel;stroke-miterlimit:4;stroke-opacity:1;stroke-dasharray:none;marker:none;visibility:visible;display:inline;overflow:visible"
         sodipodi:type="arc" />
      <path
         sodipodi:type="arc"
         style="fill:none;stroke:#cc0000;stroke-width:2.23299003;stroke-linecap:round;stroke-linejoin:bevel;stroke-miterlimit:4;stroke-opacity:1;stroke-dasharray:none;marker:none;visibility:visible;display:inline;overflow:visible"
         id="path12857"
         sodipodi:cx="42.5"
         sodipodi:cy="42.5"
         sodipodi:rx="32.5"
         sodipodi:ry="32.5"
         d="M 75,42.5 C 75,60.449254 60.449254,75 42.5,75 24.550746,75 10,60.449254 10,42.5 10,24.550746 24.550746,10 42.5,10 60.449254,10 75,24.550746 75,42.5 z"
         transform="matrix(0.89566,0,0,0.89566,17.1844,5.68443)" />
      <path
         inkscape:connector-curvature="0"
         id="text12867"
         d="m 45.484375,46.734375 -8.4375,0 1.25,1.25 c 0.937496,-0.312491 1.979162,-0.468741 3.125,-0.46875 l 32.03125,0 -2.8125,-2.8125 -2.03125,2.03125 -7.1875,0 0,-9.6875 9.21875,0 -2.8125,-2.8125 -2.03125,2.03125 -18.125,0 0,-6.875 c 3.020818,-0.208306 6.458314,-0.494764 10.3125,-0.859375 3.85414,-0.364555 6.666637,-0.59893 8.4375,-0.703125 l -2.34375,-2.96875 c -1.77086,0.93753 -3.9844,1.692738 -6.640625,2.265625 -2.65627,0.572945 -5.859391,1.067736 -9.609375,1.484375 l -2.5,-1.5625 c 0.104156,3.229193 0.15624,6.250023 0.15625,9.0625 l 0,10.625 z m 4.375,2.5 c -0.833347,1.145839 -2.213554,2.526046 -4.140625,4.140625 -1.927092,1.614585 -4.817714,3.567708 -8.671875,5.859375 l 0.15625,0.625 c 4.47916,-1.979168 9.010406,-4.479166 13.59375,-7.5 l 1.875,-0.15625 -2.8125,-2.96875 z m 8.75,0 -0.3125,0.625 c 2.187475,1.458338 3.984348,2.812504 5.390625,4.0625 1.40622,1.250001 2.734344,2.682291 3.984375,4.296875 1.249966,1.61458 2.135382,1.380205 2.65625,-0.703125 0.520798,-2.083332 -3.385448,-4.843746 -11.71875,-8.28125 l 0,0 z m -10.9375,-12.1875 11.5625,0 0,9.6875 -11.5625,0 0,-9.6875 z"
         style="font-size:40px;font-style:italic;font-variant:normal;font-weight:normal;font-stretch:normal;text-align:end;line-height:100%;text-anchor:end;fill:#cc0000;fill-opacity:1;stroke:#cc0000;stroke-width:1px;stroke-linecap:butt;stroke-linejoin:miter;stroke-opacity:1;font-family:DejaVu Serif" />
    </g>
  </g>
</svg>
