<?xml version="1.0" encoding="UTF-8" standalone="no"?>
<!-- Created with Inkscape (http://www.inkscape.org/) -->

<svg
   xmlns:dc="http://purl.org/dc/elements/1.1/"
   xmlns:cc="http://creativecommons.org/ns#"
   xmlns:rdf="http://www.w3.org/1999/02/22-rdf-syntax-ns#"
   xmlns:svg="http://www.w3.org/2000/svg"
   xmlns="http://www.w3.org/2000/svg"
   xmlns:sodipodi="http://sodipodi.sourceforge.net/DTD/sodipodi-0.dtd"
   xmlns:inkscape="http://www.inkscape.org/namespaces/inkscape"
   width="67"
   height="67"
   id="svg3289"
   version="1.1"
   inkscape:version="0.48.2 r9819"
   sodipodi:docname="red-king.svg">
  <defs
     id="defs3291" />
  <sodipodi:namedview
     id="base"
     pagecolor="#ffffff"
     bordercolor="#666666"
     borderopacity="1.0"
     inkscape:pageopacity="0.0"
     inkscape:pageshadow="2"
     inkscape:zoom="5.5"
     inkscape:cx="32"
     inkscape:cy="32"
     inkscape:current-layer="layer1"
     showgrid="true"
     inkscape:document-units="px"
     inkscape:grid-bbox="true"
     inkscape:window-width="1920"
     inkscape:window-height="1058"
     inkscape:window-x="1912"
     inkscape:window-y="-8"
     inkscape:window-maximized="1" />
  <metadata
     id="metadata3294">
    <rdf:RDF>
      <cc:Work
         rdf:about="">
        <dc:format>image/svg+xml</dc:format>
        <dc:type
           rdf:resource="http://purl.org/dc/dcmitype/StillImage" />
        <dc:title></dc:title>
      </cc:Work>
    </rdf:RDF>
  </metadata>
  <g
     id="layer1"
     inkscape:label="Layer 1"
     inkscape:groupmode="layer"
     transform="translate(0,3)">
    <g
       id="g2952"
       transform="translate(-21.75,-13.25)">
      <g
         id="g2901">
        <path
           sodipodi:type="arc"
           style="fill:#fedaa4;fill-opacity:1;stroke:#000000;stroke-width:2;stroke-linecap:round;stroke-linejoin:bevel;stroke-miterlimit:4;stroke-opacity:1;stroke-dasharray:none;marker:none;visibility:visible;display:inline;overflow:visible"
           id="path12855"
           sodipodi:cx="42.5"
           sodipodi:cy="42.5"
           sodipodi:rx="32.5"
           sodipodi:ry="32.5"
           d="M 75,42.5 C 75,60.449254 60.449254,75 42.5,75 24.550746,75 10,60.449254 10,42.5 10,24.550746 24.550746,10 42.5,10 60.449254,10 75,24.550746 75,42.5 z"
           transform="translate(12.75,1.25)" />
        <path
           transform="matrix(0.89566,0,0,0.89566,17.1844,5.68443)"
           d="M 75,42.5 C 75,60.449254 60.449254,75 42.5,75 24.550746,75 10,60.449254 10,42.5 10,24.550746 24.550746,10 42.5,10 60.449254,10 75,24.550746 75,42.5 z"
           sodipodi:ry="32.5"
           sodipodi:rx="32.5"
           sodipodi:cy="42.5"
           sodipodi:cx="42.5"
           id="path12857"
           style="fill:none;stroke:#cc0000;stroke-width:2.23299003;stroke-linecap:round;stroke-linejoin:bevel;stroke-miterlimit:4;stroke-opacity:1;stroke-dasharray:none;marker:none;visibility:visible;display:inline;overflow:visible"
           sodipodi:type="arc" />
      </g>
      <path
         id="text12867"
         d="m 64.21875,35.15625 5.9375,0 0,15.9375 c -0.104201,0.937506 -0.625034,1.380214 -1.5625,1.328125 -0.937532,-0.05208 -1.927115,-0.182286 -2.96875,-0.390625 l 0,0.625 c 2.187468,0.729171 3.437466,1.770837 3.75,3.125 1.979131,-1.041663 2.91663,-2.499995 2.8125,-4.375 l 0,-15.625 1.25,-0.9375 -2.34375,-2.03125 -1.40625,1.5625 -5.46875,0 0,-6.25 1.40625,-1.25 -3.59375,-1.5625 c 0.10414,1.666698 0.156223,4.687528 0.15625,9.0625 l -5.46875,0 -2.34375,-1.25 c 0.104148,2.395856 0.156231,5.859394 0.15625,10.390625 -1.9e-5,4.53126 -0.0521,8.411464 -0.15625,11.640625 l 2.1875,-1.25 0,-18.75 5.625,0 0,19.53125 c -2.7e-5,2.083335 -0.05211,4.583332 -0.15625,7.5 L 64.375,61.09375 C 64.270805,59.218749 64.218721,57.395834 64.21875,55.625 l 0,-20.46875 z m -22.96875,-1.875 7.8125,0 0,7.1875 -7.8125,0 0,-7.1875 z m 0,14.0625 8.4375,0 0,8.90625 -8.4375,0 0,-8.90625 z M 39.0625,60.3125 41.25,59.375 l 0,-2.34375 8.4375,0 0,2.34375 2.1875,-0.9375 C 51.770817,57.187501 51.718734,53.697921 51.71875,47.96875 l 0.9375,-0.78125 -1.875,-2.03125 -1.40625,1.40625 -8.125,0 0,-5.3125 7.8125,0 0,1.875 2.1875,-1.09375 c -0.104182,-1.458316 -0.156266,-4.166647 -0.15625,-8.125 L 52.1875,33.125 50.15625,31.09375 48.75,32.5 l -4.84375,0 2.5,-4.0625 1.40625,-1.09375 -3.28125,-1.875 c -9e-6,1.770864 -0.572925,4.114612 -1.71875,7.03125 l -1.5625,0 -2.1875,-1.09375 c 0.104163,2.083358 0.156246,6.666687 0.15625,13.75 -4e-6,7.083339 -0.05209,12.135417 -0.15625,15.15625 l 0,0 z"
         style="font-size:40px;font-style:italic;font-variant:normal;font-weight:normal;font-stretch:normal;text-align:end;line-height:100%;text-anchor:end;fill:#cc0000;fill-opacity:1;stroke:#cc0000;stroke-width:1px;stroke-linecap:butt;stroke-linejoin:miter;stroke-opacity:1;font-family:DejaVu Serif"
         inkscape:connector-curvature="0" />
    </g>
  </g>
</svg>
